# xmcd
#
# Track frame offsets:
#  180
#  11544
#  24420
#  35388
#  44728
#  57130
#  68620
#  83095
#  94504
#  109447
#  123752
#  134287
#  146096
#  157430
#  172335
#  185290
#  197804
#  214639
#  226298
#  239194
#  251051
#  262052
#  278339
#  293078
#  307862
#  318897
#
# Disc length: 4439 seconds
#
# Revision: 0
# Processed by: cddbd v1.5.1PL2 Copyright (c) Steve Scherf et al.
# Submitted via: Collectorz.com_Music_Collector 6.9
#
DISCID=7a11551a
DTITLE=Frankie Laine and Lynn Anderson - Laine and Anderson
DYEAR=1997
DGENRE=country
TTITLE0=Love Is A Golden Ring
TTITLE1=Moonlight Gambler
TTITLE2=Hummingbird
TTITLE3=Rawhide 
TTITLE4=High Noon
TTITLE5=Mule Train
TTITLE6=There Must Be A Reason
TTITLE7=Answer me
TTITLE8=Jezebel
TTITLE9=Don't Fence Me In
TTITLE10=I Believe
TTITLE11=Strange Lady In Town
TTITLE12=Rose, Rose I Love You
TTITLE13=Jealousy
TTITLE14=Rose Garden
TTITLE15=Stand By Your Man
TTITLE16=Blue Bayou
TTITLE17=Listen To A Country Song
TTITLE18=Top Of The World
TTITLE19=Rodeo Cowboy
TTITLE20=Heaven's Just A Sin Away
TTITLE21=The Devil Went Down To Georgia
TTITLE22=Gone At Last
TTITLE23=Faithless Love
TTITLE24=Someday Soon
TTITLE25=Two Doors Down
EXTD=
EXTT0=
EXTT1=
EXTT2=
EXTT3=
EXTT4=
EXTT5=
EXTT6=
EXTT7=
EXTT8=
EXTT9=
EXTT10=
EXTT11=
EXTT12=
EXTT13=
EXTT14=
EXTT15=
EXTT16=
EXTT17=
EXTT18=
EXTT19=
EXTT20=
EXTT21=
EXTT22=
EXTT23=
EXTT24=
EXTT25=
PLAYORDER=
